# xmcd
#
# Track frame offsets: 
#        150
#        30860
#        55009
#        83654
#        115125
#        143351
#        183321
#        213969
#        244594
#        277910
#        308094
#        340293
#
# Disc length: 4782 seconds
#
# Revision: 0
# Processed by: cddbd v1.5.2PL0 Copyright (c) Steve Scherf et al.
# Submitted via: ExactAudioCopy v1.3
#
DISCID=9012ac0c
DTITLE=Karyn White - Karyn White [Deluxe Edition] Disc 1\\
DYEAR=2016
DGENRE=R&B
TTITLE0=Jeff Lorber Featuring Karyn White - Facts Of Love (Actuality M
TTITLE0=ix)
TTITLE1=Jeff Lorber Featuring Karyn White - True Confessions (The Left
TTITLE1=Bank Mix)
TTITLE2=The Way You Love Me (Club Mix)
TTITLE3=Secret Rendezvous (Extended Remix)
TTITLE4=Superwoman (Long Version)
TTITLE5=Michael Jeffries With Karyn White - Not Thru Being With You (T
TTITLE5=he Club Fire Mix)
TTITLE6=Jeff Lorber Featuring Karyn White - Facts Of Love (Passion Mix
TTITLE6=)
TTITLE7=The Way You Love Me (Paul Simpson Remix)
TTITLE8=Secret Rendezvous (White House Remix)
TTITLE9=Jeff Lorber Featuring Karyn White - Facts Of Love (Fact #1)
TTITLE10=The Way You Love Me (New York Groove Edit)
TTITLE11=Secret Rendezvous (Secret Drive Time Radio Edit)
EXTD=
EXTT0=
EXTT1=
EXTT2=
EXTT3=
EXTT4=
EXTT5=
EXTT6=
EXTT7=
EXTT8=
EXTT9=
EXTT10=
EXTT11=
PLAYORDER=
